<svg xmlns="http://www.w3.org/2000/svg" viewBox="0 0 134.53 127.13">
  <g id="Layer_2" data-name="Layer 2">
    <g id="Layer_2-2" data-name="Layer 2">
      <g>
        <path d="M0,63.6a61.65,61.65,0,0,1,19.63-45A69.14,69.14,0,0,1,67.24,0,69.19,69.19,0,0,1,114.8,18.63a61.06,61.06,0,0,1,0,89.93A69.15,69.15,0,0,1,67.2,127.13a69.16,69.16,0,0,1-47.61-18.55A61.64,61.64,0,0,1,0,63.6Z" fill="#ffc425" fill-rule="evenodd"/>
        <path d="M112.11,23.59v15a40.8,40.8,0,0,0-9-1.19c-11.88,0-13.47,4.86-13.47,14.94V93.51H65.16V72.13c0-7.11,0-14.24,0-21.38,0-19.15,9.19-28.32,33.14-28.31a77.1,77.1,0,0,1,13.76,1.14Z" fill="#272525" fill-rule="evenodd"/>
        <path d="M22.33,103.6v-15a39.75,39.75,0,0,0,9,1.21c11.78,0,13.36-4.87,13.36-15,0-6.87.06-13.71.06-20.59V33.66H69.22c-2.74,4.38-4,10.07-4,17.09s0,14.27,0,21.38V93.52h0c-4.7,7.55-14,11.22-29.14,11.22A76.66,76.66,0,0,1,22.33,103.6Z" fill="#fff" fill-rule="evenodd"/>
      </g>
    </g>
  </g>
</svg>
