<?xml version="1.0" standalone="no"?>
<!DOCTYPE svg PUBLIC "-//W3C//DTD SVG 1.1//EN" "http://www.w3.org/Graphics/SVG/1.1/DTD/svg11.dtd">
<svg xmlns="http://www.w3.org/2000/svg" id="Layer_2" data-name="Layer 2" viewBox="0 0 610.59 127.13" width="610.5900268554688" height="127.12999725341797">
  <defs>
    <style>
      .cls-1 {
        fill: #272525;
      }

      .cls-1, .cls-2, .cls-3 {
        fill-rule: evenodd;
      }

      .cls-1, .cls-2, .cls-3, .cls-4 {
        stroke-width: 0px;
      }

      .cls-2 {
        fill: #ffc425;
      }

      .cls-3 {
        fill: #fff;
      }
    </style>
  </defs>
  <g id="Layer_1-2" data-name="Layer 1">
    <g>
      <path class="cls-4" d="m610.59,27.53c0,1.67-.41,3.23-1.25,4.66-.82,1.45-1.97,2.58-3.42,3.42-1.45.84-3.01,1.26-4.67,1.26s-3.23-.42-4.68-1.26c-1.45-.84-2.59-1.97-3.42-3.42-.84-1.44-1.25-2.99-1.25-4.65s.41-3.23,1.25-4.67c.83-1.44,1.97-2.57,3.41-3.42,1.46-.83,3.01-1.24,4.69-1.24s3.22.42,4.67,1.24c1.45.84,2.6,1.98,3.42,3.42.84,1.44,1.25,2.99,1.25,4.67Zm-1.29,0c0-1.45-.36-2.8-1.08-4.04-.71-1.25-1.7-2.23-2.95-2.96-1.25-.72-2.6-1.07-4.04-1.07s-2.78.35-4.03,1.07c-1.24.73-2.23,1.71-2.95,2.96-.72,1.24-1.07,2.59-1.07,4.04s.35,2.79,1.07,4.03c.72,1.25,1.7,2.23,2.95,2.95,1.26.72,2.6,1.08,4.03,1.08s2.78-.36,4.03-1.08c1.24-.72,2.23-1.71,2.95-2.95.71-1.24,1.08-2.6,1.08-4.03Zm-3.48-2h-1.63c-.16-.7-.47-1.24-.93-1.58-.47-.36-1.08-.53-1.86-.53-1.01,0-1.81.36-2.42,1.07-.61.7-.91,1.75-.91,3.11s.29,2.36.88,3.06c.58.7,1.35,1.05,2.3,1.05.78,0,1.44-.25,1.96-.73.52-.49.85-1.22.99-2.2h1.63c-.15,1.31-.65,2.35-1.48,3.11-.83.76-1.85,1.15-3.05,1.15-1.5,0-2.7-.48-3.59-1.44-.9-.97-1.35-2.3-1.35-4.01s.47-3.19,1.4-4.2c.93-1,2.12-1.5,3.56-1.5,1.32,0,2.38.32,3.17.99.79.66,1.24,1.55,1.34,2.66Z"/>
      <path class="cls-2" d="m0,63.6C0,46.03,7.46,30.12,19.63,18.62,31.78,7.13,48.63,0,67.24,0c18.57.02,35.41,7.14,47.56,18.63,12.17,11.49,19.73,27.41,19.73,44.95-.05,17.56-7.56,33.47-19.77,44.98-12.17,11.48-29,18.57-47.56,18.57s-35.47-7.06-47.61-18.55C7.43,97.09,0,81.17,0,63.6Z"/>
      <path class="cls-1" d="m112.11,23.59v15.01c-2.06-.46-5.34-1.19-9.04-1.19-11.88,0-13.47,4.86-13.47,14.94v41.16c-8.18,0-16.31.01-24.44.01v-21.39c0-7.11.05-14.24.05-21.38,0-19.15,9.19-28.32,33.14-28.31,6.64,0,11.21.69,13.76,1.14Z"/>
      <path class="cls-3" d="m22.33,103.6v-15.02c2.01.46,5.29,1.21,9.04,1.21,11.78-.02,13.36-4.87,13.36-14.96,0-6.87.06-13.71.06-20.59v-20.58h24.43c-2.74,4.38-4,10.07-4,17.09s-.05,14.27-.05,21.38v21.39h0c-4.7,7.55-13.95,11.22-29.14,11.22-6.6,0-11.15-.69-13.7-1.14Z"/>
      <path class="cls-4" d="m168.51,37.59c0,1.97.82,3.72,2.11,4.96,1.28,1.22,2.98,1.92,4.88,1.77h.88c1.63-.25,2.98-1.04,4-2.19,1.01-1.17,1.62-2.69,1.62-4.37,0-1.89-.74-3.59-1.96-4.83-1.22-1.22-2.85-1.99-4.68-1.99s-3.6.74-4.82,1.95c-1.22,1.22-2.04,2.89-2.04,4.69Z"/>
      <path class="cls-4" d="m414.98,37.64c0,1.94.74,3.69,2.03,4.93,1.29,1.22,2.99,1.92,4.89,1.77h.88c1.63-.25,2.99-1.03,4.01-2.18,1.02-1.16,1.62-2.69,1.62-4.38,0-1.86-.74-3.58-1.96-4.8-1.23-1.22-2.86-1.99-4.7-1.99s-3.59.75-4.81,1.96c-1.23,1.21-1.96,2.88-1.96,4.69Z"/>
      <path class="cls-4" d="m418.43,92.71h6.79c1.01,0,1.9-.24,2.45-.7.47-.41.74-1.03.74-1.87,0-12.23-.06-24.46-.06-36.68,0-.76-.33-1.55-1.01-2.16-.55-.56-1.35-.93-2.23-.93h-16.02c2.04,2.69,4.08,5.34,6.18,8.01.06.2.13.4.2.59v31.36c0,.71.35,1.26.74,1.66.55.46,1.37.72,2.24.72Z"/>
      <path class="cls-4" d="m387.42,57.14c1.96-1.4,1.96-1.42,4.74-1.51h0c1.09-.02,2.91.85,4.55,1.63,1.23.58,2.31,1.08,2.37,1.08h0s.35-.63.75-1.43c.74-1.52,1.49-3.41,1.55-3.75v-.02c0-.29-.13-.63-.54-.98-.55-.49-1.42-.97-2.72-1.4h0c-1.62-.56-3.8-1.13-6.31-1.33-2.57-.2-5.43-.02-8.54.9h0c-.96.27-1.56.56-1.96.77-.68.32-1.16.53-1.96.53s-1.3-.32-1.77-.68c-.4-.27-.89-.59-1.89-.59h-14.72c2.03,2.69,4.06,5.39,6.16,8.11.07.19.14.39.21.59v31.46c0,.46.28.86.62,1.16.54.5,1.35.78,1.96.87h0c.88.13,2.44.19,3.94.19s2.91-.06,3.52-.19h0c.89-.18,1.76-.5,2.37-1.02.4-.34.69-.8.69-1.38v-18.39c0-3.24.6-6,1.62-8.27,1.23-2.67,2.91-4.64,4.74-5.96.42-.24.48-.32.63-.39Z"/>
      <path class="cls-4" d="m261.41,91.63c.34.17.75.32,1.15.42h0c2.58.56,8.62,1.07,14.46.68,4-.26,7.87-.94,10.45-2.29h0c2.44-1.3,4.14-3.18,5.02-5.35.68-1.56.95-3.24.88-4.95-.06-1.68-.55-3.38-1.35-4.92-1.22-2.33-3.32-4.34-6.11-5.56h0c-2.09-.92-3.92-1.58-5.56-2.16-2.98-1.08-5.22-1.86-7.39-3.73h0c-.81-.7-1.29-1.58-1.56-2.53-.2-.79-.2-1.64,0-2.44.21-.8.61-1.6,1.22-2.29.88-1.06,2.24-1.92,4.08-2.37,0,0,.06,0,.13-.01,3.39-.46,3.93-.34,5.49,0,.13.01-.2-.06.49.09,0,.02,0,.02.06.02.41.13,2.17.71,3.53,1.1.75.22,1.28.38,1.43.38.26-.02.55.02.82.06.27.03.47.05.75.05h0c.07-.02.13-.02.13-.02.07-.03.13-.11.13-.2.13-.21.13-.54.08-.87,0-.45-.14-.91-.27-1.33-.21-.69-.69-1.4-1.23-1.97-.47-.46-1.01-.83-1.63-.95h0c-3.05-.59-6.57-1.11-10.25-1.09-3.65.02-7.53.57-11.4,2.04-2.72,1.05-4.74,3.45-5.77,6.27-.48,1.26-.74,2.59-.74,3.92s.19,2.59.67,3.83c.94,2.4,2.92,4.5,6.17,5.7,0,0,.95.3,1.84.64,4.54,1.64,9.5,3.41,11.4,5.22.75.69,1.5,1.85,1.83,3.12.27.82.34,1.74.21,2.63-.13.91-.55,1.83-1.29,2.63-.82.82-1.98,1.52-3.6,2.02-1.9.56-3.39.72-4.89.86-.4.03-.75.08-1.23.14h-.06c-1.16.04-1.9-.14-2.86-.33-.19-.06-.4-.1-.81-.19-.06,0-.13,0-.13,0-.34-.13-1.97-.61-3.33-.97-.74-.2-1.36-.36-1.49-.36-.27,0-.54-.02-.82-.06-.27-.01-.48-.06-.74-.04h0c-.06,0-.13.03-.13.03-.06.01-.14.08-.2.19-.08.22-.08.52-.08.88.08.45.14.91.35,1.32.06.37.28.76.47,1.12.27.35.55.67.82.95,0,.02,0,.03.07.05.21.25.47.47.81.65Z"/>
      <path class="cls-4" d="m165.05,109.85c2.44-.16,4.95-.61,7.26-1.42,2.04-.7,4.69-2.87,6.72-5.5,1.7-2.23,2.98-4.78,2.98-7v-42.64c0-.98-.4-1.76-.94-2.3-.68-.6-1.63-.93-2.59-.93h-15.61c2.04,2.64,4.08,5.27,6.18,7.89.07.21.13.41.2.61v37.36c0,4.49-4.81,7.19-8.28,9.17-1.15.62-2.09,1.18-2.64,1.63h0c-.34.25-.54.54-.61.83-.06.22-.06.47-.06.71.06.23.21.46.34.64.21.24.41.42.74.53,1.43.44,3.74.61,6.31.41Z"/>
      <path class="cls-4" d="m319.49,73.8c.06-2.08.06-4.18,0-6.44h0c0-2.31-.06-4.22.68-5.9.75-1.74,2.24-3.08,5.23-4.09h0c1.28-.45,2.3-1.03,2.84-1.7.34-.4.55-.79.55-1.21.07-.4-.13-.82-.47-1.25-.55-.73-1.64-1.44-3.19-2.03-5.91-2.37-5.91-5.87-5.91-10.6v-5.9c0-1.15-.07-2.39-.48-3.32-.34-.74-.88-1.24-1.77-1.24h-6.65c-.88,0-1.41.5-1.77,1.24-.4.93-.54,2.17-.54,3.32v5.11c0,2.55,0,4.71-.68,6.6-.68,1.98-1.97,3.55-4.41,4.73-1.09.56-1.9,1.13-2.37,1.69-.41.48-.61.96-.55,1.4.08.48.28.95.68,1.41.63.67,1.5,1.28,2.51,1.8,2.65,1.31,4.01,2.13,4.76,3.55.68,1.38.74,3.04.81,6.15h0v4.61c-.07,2.56-.07,5.45.06,9.06h0c.13,2.04.96,5.2,3.73,7.72,1.97,1.76,4.82,3.19,9.1,3.71,3.66.45,6.17.09,7.6-.67.74-.35,1.14-.77,1.42-1.23.21-.42.28-.87.21-1.32-.13-.6-.55-1.19-1.16-1.7-.13-.12-1.28-.18-2.44-.28-1.35-.09-2.79-.19-3.39-.62-.34-.23-.68-.47-1.02-.67-2.45-1.57-3.26-2.1-3.4-5.51h0v-6.43Z"/>
      <path class="cls-4" d="m241.86,91.85c.55,0,1.02,0,1.56,0,1.16,0,2.18-.36,2.92-1.08.6-.67,1.01-1.69,1.01-3.05v-33c0-1.31-.41-2.53-1.09-3.41-.61-.77-1.43-1.23-2.44-1.23h-16.15c2.11,2.73,4.28,5.45,6.45,8.16.07.21.14.41.21.61v11.61c0,2.74-.34,5.66-1.22,8.16-.75,2.26-1.97,4.21-3.53,5.41h0c-1.29.99-2.5,1.61-3.87,1.99-1.36.36-2.79.47-4.28.36h0c-3.04-.16-6.51-1.6-8.94-5.03-1.91-2.63-3.13-6.41-3.13-11.7v-14.94c0-1.37-.4-2.66-1.09-3.55-.61-.72-1.5-1.19-2.64-1.19h-5.77c-1.37,0-2.32.36-2.86,1.08-.61.75-.96,1.96-.96,3.57v14.77c0,13.14,4.69,19.4,11,21.93,6.45,2.6,14.6,1.41,21.45-.34h0c.55-.12.94-.24,1.36-.36,1.35-.39,1.96-.55,3.4-.46h0c1.48.07,2.09.35,3.04.86.34.16.68.36,1.16.56h0c.74.34,2.5.33,4.41.28Z"/>
      <path class="cls-4" d="m491.58,99.03v-39.53c.06-.19.13-.39.2-.59,2.18-2.74,4.35-5.51,6.59-8.28h-16.15c-.68,0-1.22.32-1.77.68-.93.59-1.96,1.22-3.79,1.22h0c-1.62-.04-3.53-.6-5.56-1.23-2.45-.76-5.16-1.58-7.59-1.58-6.72,0-12.23,2.21-16.08,5.73-4.14,3.73-6.45,8.98-6.45,14.69h0c-.06,4.45.54,8.12,1.55,11.13,1.64,4.63,4.36,7.69,7.61,9.63,3.25,1.94,7.2,2.73,11.06,2.77,4.2.05,8.34-.77,11.8-1.99h0c1.43-.47,2.58-.13,3.6.8.67.65,1.29,1.58,1.62,2.67.34,1.04.47,2.26.47,3.53-.13,3.4-1.69,7.31-5.77,9.69h0c-1.01.65-3.65,1.56-7.99,2.05-3,.34-6.73.48-11.34.21-1.08-.05-2.04-.51-2.79-.9-.54-.27-1.02-.5-1.22-.44-.61.14-1.01.44-1.28.82-.28.44-.35,1.02-.28,1.67.06.72.35,1.5.82,2.25.89,1.45,2.38,2.76,4.27,3.36h0c2.11.63,6.99,1.47,12.63,1.47,4.95,0,10.45-.65,15.13-2.69,4.48-1.98,8.21-5.35,9.84-10.72.62-1.88.89-4.02.89-6.41h0Zm-33.8-38.27c2.52-2.87,5.77-4.55,8.63-4.55,3.39,0,6.64,1.5,9.03,4.41,2.1,2.57,3.44,6.16,3.44,10.67,0,2.76-.4,5.69-1.21,8.2-.82,2.23-1.97,4.14-3.53,5.38h0c-1.16.92-2.45,1.56-3.73,1.95-1.36.39-2.72.51-4.21.43h0c-3.05-.19-6.64-1.62-9.15-5.13-1.84-2.64-3.06-6.42-2.91-11.74.06-3.83,1.56-7.15,3.65-9.61Z"/>
      <path class="cls-4" d="m556.73,91.9c.47-.53.75-1.35.75-2.4,0-5.56-.06-11.11-.06-16.67,0-4.36-.48-7.97-1.36-10.95-1.49-4.74-3.93-7.86-6.99-9.76-3.13-1.92-6.79-2.65-10.59-2.65-4.28,0-8.75.91-12.69,2.11-2.51.78-4.14.38-5.16-2.9-.82-2.63-1.09-7.48-1.09-15.87,0-.95-.33-1.74-.88-2.3-.48-.57-1.22-.88-2.04-.88h-15.75c2.04,2.67,4.14,5.34,6.24,8.02.07.19.14.4.21.59v51.17c0,.97.33,1.77.89,2.37.61.58,1.35.93,2.17.93h6.78c1.09,0,1.77-.29,2.18-.79.47-.6.67-1.47.67-2.6,0-5.83,0-11.69-.06-17.56,0-2.91.33-5.67,1.16-8.01.75-2.19,1.89-4.02,3.53-5.26,1.22-.93,2.5-1.58,3.87-1.99,1.41-.42,2.84-.58,4.4-.49h0c2.99.18,6.38,1.56,8.69,4.95,1.83,2.59,3.06,6.33,3.13,11.61v16.94c0,.91.33,1.71.94,2.25.62.61,1.5.96,2.44.96,2.12,0,4.21-.02,6.31-.02,1.02,0,1.83-.28,2.31-.79Z"/>
      <path class="cls-4" d="m584.67,74.41c.08-2.12.08-4.23,0-6.55h0c0-2.34-.05-4.27.68-5.96.75-1.75,2.24-3.1,5.23-4.13h0c1.29-.45,2.25-1.04,2.85-1.7.35-.41.55-.82.55-1.24s-.13-.87-.47-1.31c-.55-.73-1.63-1.44-3.18-2.07-5.92-2.37-5.92-5.9-5.92-10.68v-5.97c0-1.17-.07-2.44-.48-3.38-.34-.75-.89-1.26-1.77-1.26h-6.72c-.81,0-1.35.51-1.69,1.26-.4.93-.54,2.21-.54,3.38v5.14c0,2.6,0,4.77-.68,6.67-.68,1.99-1.96,3.59-4.41,4.81h0c-1.09.56-1.89,1.12-2.37,1.68-.4.5-.6,1.01-.55,1.47.08.48.29.97.75,1.45.55.68,1.43,1.29,2.45,1.8h0c2.65,1.33,4,2.15,4.75,3.57.68,1.4.74,3.1.81,6.24h0v4.68c-.07,2.59-.07,5.5.06,9.16.13,2.07.96,5.26,3.74,7.81,1.97,1.77,4.82,3.22,9.1,3.76,3.66.45,6.1.09,7.66-.66.68-.35,1.16-.79,1.43-1.26.21-.41.27-.89.14-1.35-.07-.62-.47-1.24-1.08-1.75-.13-.1-1.36-.18-2.52-.26-1.35-.11-2.79-.22-3.39-.65-.48-.3-.75-.51-1.01-.66-2.44-1.61-3.26-2.11-3.41-5.56h0v-6.51Z"/>
    </g>
  </g>
</svg>